<?xml version="1.0" standalone="no"?>
<!DOCTYPE svg PUBLIC "-//W3C//DTD SVG 20010904//EN"
 "http://www.w3.org/TR/2001/REC-SVG-20010904/DTD/svg10.dtd">
<svg version="1.0" xmlns="http://www.w3.org/2000/svg"
 width="661.000000pt" height="661.000000pt" viewBox="0 0 661.000000 661.000000"
 preserveAspectRatio="xMidYMid meet">
<metadata>
Created by potrace 1.11, written by Peter Selinger 2001-2013
</metadata>
<g transform="translate(0.000000,661.000000) scale(0.100000,-0.100000)"
fill="#000000" stroke="none">
<path d="M4080 6597 c-1 -49 -154 -228 -294 -342 -26 -22 -60 -50 -75 -63 -14
-13 -48 -42 -75 -65 -49 -43 -149 -141 -176 -174 -40 -48 -110 -165 -115 -193
-1 -3 -4 -18 -8 -35 -26 -108 -24 -168 6 -290 18 -71 101 -195 131 -195 7 0
35 25 62 56 27 31 57 65 66 75 19 20 140 197 152 220 3 8 20 37 36 64 39 66
130 250 130 264 0 6 5 11 11 11 5 0 8 4 5 9 -7 11 20 48 29 39 4 -4 2 -23 -5
-43 -7 -20 -13 -42 -14 -48 -1 -7 -4 -16 -7 -22 -7 -12 -20 -62 -18 -71 0 -4
-3 -10 -8 -13 -5 -3 -17 -28 -27 -56 -53 -144 -197 -410 -273 -503 -48 -59
-38 -67 85 -67 80 1 107 5 152 25 82 35 149 80 207 139 59 59 143 180 143 205
0 9 4 16 8 16 7 0 50 115 58 155 26 125 23 323 -7 440 -5 22 -12 49 -14 60
-10 53 -27 107 -54 180 -55 151 -65 175 -73 175 -4 0 -8 6 -8 13 0 7 -7 22
-15 33 -13 18 -14 18 -15 1z"/>
<path d="M5856 6432 c-43 -87 -167 -278 -223 -343 -46 -53 -246 -254 -290
-291 -67 -57 -222 -158 -328 -215 -100 -54 -263 -127 -575 -259 -171 -72 -329
-155 -459 -242 -64 -42 -120 -81 -126 -87 -5 -6 -32 -29 -60 -51 -128 -101
-312 -303 -408 -447 -68 -103 -78 -122 -130 -249 -34 -82 -54 -238 -34 -265 5
-7 7 -13 3 -13 -15 0 29 -52 56 -66 60 -31 163 -11 283 53 17 9 39 21 50 27
62 33 213 157 296 243 254 260 298 303 354 340 130 87 244 97 327 30 52 -42
60 -201 17 -314 -6 -16 -10 -29 -10 -30 2 -12 -43 -129 -56 -144 -7 -8 -13
-18 -13 -22 0 -11 -88 -151 -109 -174 -12 -12 -21 -24 -21 -27 0 -18 -208
-227 -262 -263 -21 -14 -38 -30 -38 -34 0 -5 -4 -9 -10 -9 -5 0 -32 -16 -59
-35 -26 -19 -53 -35 -60 -35 -6 0 -11 -4 -11 -9 0 -5 -12 -14 -27 -20 -16 -7
-53 -25 -83 -42 -133 -71 -320 -132 -535 -173 -11 -2 -49 -7 -85 -11 -36 -4
-74 -9 -85 -11 -26 -5 -339 -5 -385 0 -19 2 -64 7 -100 10 -36 4 -90 11 -120
16 -30 5 -72 12 -94 15 -65 9 -254 53 -387 90 -274 76 -521 102 -583 62 -48
-32 -28 -87 68 -183 116 -115 292 -202 653 -323 84 -28 162 -53 175 -55 13 -3
43 -10 68 -17 50 -12 69 -16 120 -25 19 -4 44 -8 55 -10 11 -3 40 -6 65 -9 25
-3 56 -7 69 -10 134 -26 607 -26 743 1 13 2 46 6 73 9 64 8 100 14 150 26 22
5 52 11 66 14 104 16 387 114 564 195 116 53 353 188 415 237 8 6 56 42 106
80 175 131 335 283 471 446 41 49 78 94 83 100 43 52 190 270 190 283 0 3 9
18 20 34 28 40 143 272 180 365 39 96 100 275 95 275 -2 0 2 18 10 39 7 22 16
54 19 73 3 18 10 49 16 68 6 19 13 51 16 70 3 19 7 46 10 60 3 14 7 41 10 60
2 19 7 46 10 60 25 132 25 650 -1 764 -3 12 -7 39 -10 61 -3 22 -7 49 -9 60
-2 11 -7 40 -11 65 -3 24 -11 53 -17 63 -5 10 -7 21 -5 23 3 3 -4 33 -14 66
-10 34 -16 65 -13 70 3 4 0 8 -6 8 -6 0 -9 4 -5 9 3 5 2 12 -3 15 -4 3 -25
-30 -46 -72z"/>
<path d="M3194 6402 c-182 -25 -298 -76 -389 -168 -49 -50 -104 -132 -111
-166 -1 -5 -2 -9 -4 -10 -12 -15 -17 -144 -7 -183 3 -11 6 -22 6 -25 1 -3 10
-20 22 -39 19 -32 21 -33 40 -16 10 10 19 23 19 29 0 10 85 144 99 156 3 3 22
26 41 52 32 44 60 61 60 38 0 -9 -39 -72 -60 -97 -6 -7 -8 -13 -4 -13 4 0 -1
-9 -10 -19 -16 -17 -77 -138 -74 -144 1 -1 -4 -12 -11 -25 -18 -34 9 -50 82
-50 76 1 157 31 203 77 33 34 86 112 90 136 1 5 9 29 18 53 8 23 13 42 10 42
-2 0 0 8 5 19 6 10 13 31 15 47 3 16 15 61 26 99 12 39 22 75 24 80 1 8 53
119 63 135 5 9 -62 5 -153 -8z"/>
<path d="M915 6397 c-38 -21 -78 -94 -92 -167 -8 -44 -12 -93 -12 -160 l-1
-75 -50 -16 c-52 -18 -54 -17 -66 34 -1 4 -2 8 -4 10 -1 1 -4 11 -6 22 -11 48
-10 87 6 137 18 58 16 78 -6 78 -32 0 -48 -99 -30 -180 9 -43 20 -78 32 -101
12 -24 10 -29 -30 -72 -73 -80 -93 -209 -47 -297 59 -112 152 -168 273 -161
33 2 37 -1 43 -31 4 -18 15 -48 23 -66 14 -28 20 -32 42 -27 91 22 201 108
235 184 9 20 21 45 26 56 15 33 39 163 33 180 -3 8 -14 15 -23 16 -9 0 -25 2
-36 4 -11 2 -37 5 -57 7 -33 2 -38 6 -53 44 -38 101 -120 166 -226 182 l-54 7
2 88 c2 111 15 149 71 209 44 48 61 92 38 101 -7 3 -21 0 -31 -6z"/>
<path d="M1328 6238 c-71 -59 -79 -67 -113 -124 -69 -113 -45 -272 48 -320
l27 -15 0 64 c0 73 9 127 20 127 5 0 9 -27 9 -60 0 -60 10 -130 18 -130 11 0
70 34 84 50 28 29 49 78 51 117 1 30 -12 111 -27 163 -13 43 -17 59 -20 76 -2
10 -4 19 -5 19 -1 0 -3 16 -5 35 -4 50 -4 50 -14 50 -6 0 -38 -23 -73 -52z"/>
<path d="M1761 6078 c-119 -21 -235 -109 -271 -205 -42 -112 -27 -124 85 -67
91 45 281 111 292 100 3 -3 -11 -13 -33 -22 -84 -35 -191 -86 -224 -108 -19
-12 -52 -33 -72 -47 -24 -15 -34 -27 -28 -33 17 -17 11 -27 -15 -20 -23 6 -24
5 -15 -28 16 -52 5 -294 -15 -353 -19 -56 -64 -154 -80 -172 -38 -45 -37 -43
-8 -54 41 -16 105 -39 109 -39 10 0 80 122 96 168 22 63 36 161 33 222 -5 73
-15 145 -25 179 -8 28 -7 31 8 27 43 -14 117 -23 146 -19 17 3 54 16 81 29 49
23 68 39 224 187 40 37 94 81 121 98 28 17 50 33 50 35 0 9 -141 74 -215 98
-86 28 -173 37 -244 24z"/>
<path d="M1334 5671 c0 -228 -76 -384 -220 -454 -42 -20 -42 -20 -21 -37 12
-9 43 -27 68 -40 l47 -24 41 34 c36 28 121 129 121 144 0 2 10 26 21 53 12 26
23 55 25 63 1 8 5 31 9 50 8 41 13 205 7 237 -2 11 -11 23 -20 26 -10 3 -31
10 -47 15 l-31 9 0 -76z"/>
<path d="M2269 5648 c-1 -25 3 -133 6 -163 8 -66 14 -111 20 -135 3 -14 8 -38
10 -54 3 -16 10 -37 16 -47 5 -11 6 -19 2 -19 -4 0 -2 -5 5 -12 7 -7 12 -19
12 -27 0 -9 18 -53 41 -98 75 -150 220 -271 378 -313 60 -16 168 -14 219 4 45
16 102 52 102 64 0 4 -21 18 -47 32 -51 27 -229 151 -278 195 -61 54 -165 158
-165 167 0 12 17 10 32 -5 7 -7 33 -28 58 -47 25 -19 47 -37 50 -41 3 -4 50
-35 105 -71 168 -108 307 -166 311 -130 1 6 3 13 4 15 10 10 15 130 7 162 -14
52 -40 114 -64 150 -73 110 -169 157 -523 255 -116 32 -208 70 -267 110 -24
16 -33 18 -34 8z"/>
<path d="M1657 5523 c-4 -3 -2 -13 3 -22 20 -39 30 -204 17 -291 -9 -54 -45
-167 -64 -196 -12 -19 -10 -22 44 -50 32 -15 74 -43 93 -61 19 -18 37 -33 40
-33 10 0 -3 259 -15 320 -3 14 -8 43 -10 64 -11 83 -92 285 -108 269z"/>
<path d="M2162 4718 c-60 -7 -165 -48 -203 -80 -53 -45 -107 -171 -70 -163 9
2 48 11 86 20 85 19 375 33 375 18 0 -6 -37 -14 -82 -17 -105 -9 -258 -40
-323 -65 -40 -16 -50 -24 -47 -41 8 -70 133 -150 237 -151 56 -1 200 38 230
61 38 30 251 130 298 140 l58 12 -55 51 c-71 66 -124 111 -139 116 -7 2 -19 9
-27 16 -31 26 -161 75 -217 83 -32 4 -87 4 -121 0z"/>
<path d="M2310 4025 c-12 -15 -6 -49 14 -72 34 -40 101 -106 166 -163 40 -36
82 -74 94 -85 48 -47 336 -291 391 -333 33 -25 79 -53 102 -63 41 -19 117 -28
130 -16 6 7 -38 97 -48 97 -4 0 -12 14 -19 30 -7 17 -16 30 -21 30 -5 0 -9 5
-9 10 0 11 -33 60 -62 94 -10 11 -30 38 -45 60 -74 107 -213 243 -332 325
-114 77 -326 128 -361 86z"/>
<path d="M1662 3984 c-29 -8 -60 -20 -67 -28 -26 -25 -28 -63 -7 -98 49 -78
300 -291 462 -390 78 -48 92 -53 150 -63 19 -3 46 -8 60 -10 14 -2 122 -20
240 -40 262 -44 258 -43 295 -49 17 -2 50 -8 75 -11 l45 -8 -31 29 c-18 16
-42 38 -56 49 -99 83 -205 169 -268 220 -41 32 -76 63 -78 67 -2 4 -8 8 -13 8
-5 0 -37 22 -72 49 -155 121 -300 203 -432 245 -133 42 -222 51 -303 30z"/>
<path d="M3134 3672 c-19 -12 -19 -45 0 -82 11 -19 22 -37 25 -40 3 -3 24 -32
46 -65 42 -64 52 -77 73 -100 7 -8 11 -15 7 -15 -4 0 7 -11 24 -25 21 -19 37
-24 58 -21 51 10 82 27 78 44 -22 91 -28 108 -66 172 -49 84 -197 164 -245
132z"/>
<path d="M4234 2731 c-5 -6 -43 -21 -85 -35 -115 -39 -241 -66 -419 -90 -194
-27 -685 -27 -910 0 -19 2 -55 6 -80 9 -25 2 -71 7 -103 11 l-59 7 16 -31 c9
-18 16 -34 17 -37 0 -3 8 -25 19 -51 11 -25 20 -47 20 -49 0 -2 4 -14 9 -27 5
-13 10 -27 11 -33 1 -5 7 -21 12 -35 20 -50 59 -204 73 -285 3 -16 8 -37 10
-45 2 -8 6 -35 9 -60 3 -25 8 -56 11 -68 17 -89 23 -367 11 -520 -10 -128 -14
-153 -31 -232 -3 -14 -8 -35 -11 -47 -2 -12 -9 -35 -15 -50 -6 -16 -10 -28 -9
-28 7 0 -83 -225 -92 -231 -4 -3 -8 -14 -8 -25 0 -10 -4 -19 -9 -19 -5 0 -13
-10 -17 -22 -4 -13 -18 -40 -31 -60 -13 -21 -20 -38 -16 -38 5 0 3 -4 -2 -8
-14 -10 -85 -120 -85 -131 0 -5 -3 -11 -8 -13 -10 -4 -107 -142 -103 -147 1
-2 -2 -7 -7 -10 -5 -3 -33 -37 -63 -76 -29 -38 -55 -72 -58 -75 -9 -7 -131
-168 -131 -172 0 -2 631 -4 1403 -5 1091 -1 1398 1 1383 10 -45 29 -175 129
-211 162 -132 121 -233 225 -280 290 -17 22 -33 42 -36 45 -14 11 -140 210
-153 242 -8 18 -18 37 -23 41 -4 5 -8 12 -8 15 -1 4 -11 29 -23 56 -12 27 -22
54 -22 60 0 7 -4 16 -8 22 -8 8 -25 61 -38 113 -2 9 -8 34 -13 56 -5 22 -13
54 -17 70 -9 43 -12 495 -3 585 13 138 20 195 24 216 3 12 7 39 10 60 3 21 10
62 15 89 5 28 12 66 15 85 3 19 12 60 20 90 8 30 16 66 19 80 2 14 12 52 21
85 9 33 20 74 25 90 4 17 17 61 30 98 22 67 23 86 4 68z"/>
</g>
</svg>
