<?xml version="1.0" encoding="iso-8859-1"?>
<!-- Generator: Adobe Illustrator 19.0.0, SVG Export Plug-In . SVG Version: 6.00 Build 0)  -->
<svg version="1.1" id="Layer_1" xmlns="http://www.w3.org/2000/svg" xmlns:xlink="http://www.w3.org/1999/xlink" x="0px" y="0px"
	 viewBox="0 0 512 512" style="enable-background:new 0 0 512 512;" xml:space="preserve">
<path style="fill:#E69629;" d="M488.741,0.146c-12.845,0-23.259,10.412-23.259,23.259v78.662l-46.519,23.259V23.405
	c0-12.847-10.412-23.259-23.259-23.259c-12.845,0-23.259,10.412-23.259,23.259v101.921l-46.519-23.259V23.405
	c0-12.847-10.412-23.259-23.259-23.259c-12.845,0-23.259,10.412-23.259,23.259v93.038v93.038v93.038
	c0,8.811,4.976,16.863,12.858,20.803l80.18,40.092v125.181c0,12.845,10.414,23.259,23.259,23.259
	c12.847,0,23.259-10.414,23.259-23.259V363.414l80.18-40.092c7.88-3.939,12.858-11.993,12.858-20.803v-93.038v-93.038V23.405
	C512,10.558,501.587,0.146,488.741,0.146z"/>
<path style="fill:#FFB655;" d="M209.335,0.146c-12.847,0-23.259,10.412-23.259,23.259v78.662l-46.519,23.259V23.405
	c0-12.847-10.414-23.259-23.259-23.259c-12.847,0-23.259,10.412-23.259,23.259v101.921l-46.519-23.259V23.405
	c0-12.847-10.414-23.259-23.259-23.259C10.412,0.146,0,10.558,0,23.405v93.038v93.038v93.038c0,8.811,4.978,16.863,12.858,20.803
	l80.18,40.09v125.181c0,12.845,10.412,23.259,23.259,23.259c12.845,0,23.259-10.414,23.259-23.259V363.412l80.18-40.092
	c7.88-3.939,12.858-11.993,12.858-20.803v-93.038v-93.038V23.404C232.595,10.558,222.181,0.146,209.335,0.146z"/>
<g>
	<polygon style="fill:#EE8700;" points="46.519,288.143 93.038,311.403 93.038,270.374 46.519,247.115 	"/>
	<polygon style="fill:#EE8700;" points="139.557,311.403 186.076,288.143 186.076,247.115 139.557,270.374 	"/>
	<polygon style="fill:#EE8700;" points="46.519,195.105 93.038,218.365 93.038,177.336 46.519,154.077 	"/>
	<polygon style="fill:#EE8700;" points="139.557,218.365 186.076,195.105 186.076,154.077 139.557,177.336 	"/>
</g>
<g>
	<polygon style="fill:#ECB45C;" points="325.924,288.143 372.443,311.403 372.443,270.374 325.924,247.115 	"/>
	<polygon style="fill:#ECB45C;" points="418.962,311.403 465.481,288.143 465.481,247.115 418.962,270.374 	"/>
	<polygon style="fill:#ECB45C;" points="325.924,195.105 372.443,218.365 372.443,177.336 325.924,154.077 	"/>
	<polygon style="fill:#ECB45C;" points="418.962,177.336 418.962,218.365 465.481,195.105 465.481,154.077 	"/>
</g>
<g>
</g>
<g>
</g>
<g>
</g>
<g>
</g>
<g>
</g>
<g>
</g>
<g>
</g>
<g>
</g>
<g>
</g>
<g>
</g>
<g>
</g>
<g>
</g>
<g>
</g>
<g>
</g>
<g>
</g>
</svg>
